<svg xmlns="http://www.w3.org/2000/svg" viewBox="0 0 1376.517 202"><defs/><defs><style>.a{fill:none;stroke:#000;stroke-linejoin:round;stroke-width:2px}</style></defs><path d="M358.797 43.554v118.8h-6.66l-72.54-103.32-6.12-9.9h-.18l.36 11.7v101.52h-4.86v-118.8h6.48l72.72 103.32 6.12 10.08-.18-11.88V43.554zm36.36 118.8v-118.8h79.56v4.5h-74.52v51.48h59.4v4.5h-59.4v53.82h77.4v4.5zm182.16 0h-5.94l-39.06-56.88-39.78 56.88h-6.3l43.2-61.38-39.42-57.42h6.12l36.36 53.1 37.08-53.1h6.3l-40.32 57.6zm100.8-118.8v4.5h-44.64v114.3h-5.04v-114.3h-44.82v-4.5zm21.42 118.8v-118.8h41.94q19.62 0 29.16 8.19t9.54 23.31a28.025 28.025 0 01-5.58 17.55q-5.58 7.29-16.2 9.45v.18q11.52 1.8 18.27 9.45a27.168 27.168 0 016.75 18.63q0 15.12-10.8 23.58t-31.14 8.46zm9-8.28h34.74q15.3 0 22.95-6.12t7.65-17.64q0-11.7-7.65-17.73t-22.95-6.03h-34.74zm0-55.8h33.12q28.98 0 28.98-23.22t-28.98-23.22h-33.12zm104.76 64.08v-118.8h81.18v8.28h-72.18v45.9h57.06v8.46h-57.06v47.88h75.06v8.28zm94.86 0l47.52-118.8h10.62l47.52 118.8h-9.54l-38.88-97.38-4.32-12.6h-.18l-4.32 12.24-38.88 97.74zm21.06-37.26v-8.28h63.18v8.28zm197.82 7.2a47.173 47.173 0 01-10.17 17.1 44.606 44.606 0 01-16.2 10.98 56.506 56.506 0 01-21.15 3.78q-16.2 0-28.35-7.47a50.275 50.275 0 01-18.9-21.15q-6.75-13.68-6.75-32.58t6.66-32.58a49.69 49.69 0 0118.81-21.15q12.15-7.47 28.35-7.47a61.376 61.376 0 0121.15 3.33 40.061 40.061 0 0115.39 9.9 42.76 42.76 0 019.54 16.11l-8.82 4.14q-4.14-12.42-13.14-18.81t-23.58-6.39a43.215 43.215 0 00-23.49 6.39 42.153 42.153 0 00-15.75 18.18q-5.58 11.79-5.58 28.35 0 16.38 5.49 28.26a41.7 41.7 0 0015.57 18.27 42.763 42.763 0 0023.4 6.39q14.4 0 24.48-6.93t14.04-20.07zm73.62-90.54q16.92 0 29.16 7.47a49.5 49.5 0 0118.9 21.15q6.66 13.68 6.66 32.58t-6.66 32.58a49.5 49.5 0 01-18.9 21.15q-12.24 7.47-29.16 7.47-16.74 0-29.07-7.47a49.313 49.313 0 01-18.99-21.15q-6.66-13.68-6.66-32.58t6.66-32.58a49.313 49.313 0 0118.99-21.15q12.33-7.47 29.07-7.47zm0 8.28q-13.86 0-24.03 6.39a41.5 41.5 0 00-15.66 18.27q-5.49 11.88-5.49 28.26t5.49 28.26a41.5 41.5 0 0015.66 18.27q10.17 6.39 24.03 6.39 14.04 0 24.12-6.39a42.268 42.268 0 0015.66-18.27q5.58-11.88 5.58-28.26t-5.58-28.26a42.268 42.268 0 00-15.66-18.27q-10.08-6.39-24.12-6.39zm175.86-6.48v118.8h-11.16l-63-93.24-8.82-15.3h-.18l.54 14.4v94.14h-8.64v-118.8h11.34l62.82 93.06 9 15.48-.36-14.4v-94.14z"/><path d="M44.945 101.335l-14.8-14.8 85.428-85.428 85.428 85.428v29.053l-85.43-85.426z" class="a"/><path d="M100.666 44.944l14.802-14.8 85.428 85.428L115.468 201H86.415l85.428-85.428z" class="a"/><path d="M157.056 100.666l14.8 14.802-85.428 85.428L1 115.468V86.415l85.428 85.428z" class="a"/><path d="M101.334 157.057l-14.802 14.8L1.104 86.429 86.532 1.001h29.053L30.157 86.429z" class="a"/></svg>
